<?xml version="1.0" encoding="UTF-8"?><svg xmlns="http://www.w3.org/2000/svg" viewBox="0 0 300 300"><defs><style>.cls-1{fill:none;}.cls-2{fill:#b5b5a3;}.cls-3{fill:#0a0e12;}.cls-4{fill:#f2f2e8;}</style></defs><g id="_レイヤー_2"><rect class="cls-1" width="300" height="300"/></g><g id="_レイヤー_1"><polygon class="cls-4" points="194.4 166 196 167.8 196.4 167.2 197.8 166.4 198.9 165.7 200 165.7 200.6 166.1 201.3 167 202 167.4 202.1 168.1 201.8 168.4 201.5 168.7 201.8 169.5 202 169.9 201.7 171.5 200.7 172.3 200.2 173.1 199.7 174.1 199.4 174.5 199.1 175 198.5 175.5 197 175.9 195.4 175.7 194.9 175.2 194.4 174.4 193.6 171.9 192.6 171.7 192.2 169.8 192.2 168.9 193.1 167.9 193.1 166.4 193.8 166.1 194.4 166"/><polygon class="cls-4" points="105.3 140.4 110.6 147.7 180.3 147.6 181.2 148.5 182.3 149.3 183.4 149.3 183.6 150.1 184.2 150.4 184.7 150.8 190.8 151 191.2 151.3 192.5 152 197.9 152 198.7 151.6 199.1 144.9 199.1 144.3 199.6 143.8 199.7 142.3 204 142.9 204.2 142.4 204.1 140.5 202.3 140.2 200.9 139.7 199.1 139.7 198.9 139.3 198.9 122.2 198.7 106 198.1 105.5 196.7 105.2 196.3 104.7 194.6 104.5 193.7 104.3 192.7 103.5 189.9 103.5 189.7 103 186.8 102.6 186 102.4 186 101.8 182.9 101.8 182.9 101.3 181.7 101 180.8 100.6 180.3 100.1 179.4 99.7 99 99.9 98.4 100.3 98 101.4 98 131.9 98.4 132.3 102.6 137.9 106.9 138.1 106.9 139 106.9 140.2 105.3 140.4"/><rect class="cls-3" x="104.1" y="106.6" width="11.9" height="14.4"/><rect class="cls-3" x="117.1" y="106.6" width="13.7" height="14.4"/><rect class="cls-3" x="131.8" y="106.6" width="13.4" height="17.9"/><rect class="cls-3" x="146.2" y="106.6" width="13.8" height="17.9"/><rect class="cls-3" x="161.2" y="106.6" width="12.8" height="17.9"/><polygon class="cls-3" points="196.6 147.8 197 147.3 197.6 146.7 198.7 145.3 199.1 144.9 199.1 144.3 199.7 144.3 199.7 143.5 199.7 141.4 195.5 141.4 195.6 147 196.6 147.8"/><rect class="cls-3" x="198.1" y="145.2" width=".7" height=".7"/><rect class="cls-3" x="197.6" y="145.8" width=".7" height=".7"/><rect class="cls-3" x="197.1" y="146.4" width=".7" height=".7"/><rect class="cls-3" x="196.6" y="146.9" width=".7" height=".7"/><rect class="cls-3" x="196.2" y="147.5" width=".7" height=".7"/><rect class="cls-3" x="195.7" y="148.1" width=".7" height=".7"/><rect class="cls-3" x="183.1" y="145" width="1.4" height="2.5"/><rect class="cls-3" x="182.6" y="140.2" width="2.3" height="6.8"/><rect class="cls-3" x="184.1" y="140.2" width="7.5" height="6.3"/><rect class="cls-3" x="189.6" y="140.5" width="6.6" height="7"/><rect class="cls-3" x="194.1" y="146.3" width="2.2" height="2.2"/><rect class="cls-3" x="194.3" y="147.6" width="1.5" height="1.5"/><rect class="cls-2" x="119.7" y="141" width="8.4" height=".4"/><rect class="cls-2" x="121.8" y="141" width=".6" height="1.2"/><rect class="cls-2" x="123" y="141" width=".6" height="3"/><rect class="cls-2" x="123.4" y="140.7" width=".6" height="5"/><rect class="cls-2" x="124.7" y="140.9" width=".5" height="3"/><rect class="cls-3" x="97.4" y="100.3" width="1" height="32"/><rect class="cls-3" x="179.8" y="100.3" width="1" height="47.3"/><rect class="cls-3" x="139.4" y="58.3" width="1" height="83" transform="translate(40.1 239.7) rotate(-90)"/><rect class="cls-3" x="145.4" y="112.1" width="1" height="70.9" transform="translate(-1.6 293.5) rotate(-90)"/><rect class="cls-3" x="124.7" y="114.4" width="1" height="46.9" transform="translate(-12.6 263.1) rotate(-90)"/><rect class="cls-3" x="126.3" y="118.6" width="1" height="43.8" transform="translate(-13.7 267.3) rotate(-90)"/><rect class="cls-3" x="106.4" y="138.4" width=".9" height="2"/><rect class="cls-3" x="147.6" y="138.1" width="1.1" height="2.6"/><rect class="cls-3" x="107.4" y="138.1" width="40.2" height=".9"/><rect class="cls-3" x="98.4" y="132.2" width="1.1" height="1.1"/><rect class="cls-3" x="99.1" y="133.2" width="1.1" height="1.1"/><rect class="cls-3" x="99.8" y="134.2" width="1.1" height="1.1"/><rect class="cls-3" x="100.4" y="135.2" width="1.1" height="1.1"/><rect class="cls-3" x="101.1" y="136.2" width="1.1" height="1.1"/><rect class="cls-3" x="105.3" y="140.4" width="1.1" height="1.1"/><rect class="cls-3" x="106" y="141.4" width="1.1" height="1.1"/><rect class="cls-3" x="106.6" y="142.4" width="1.1" height="1.1"/><rect class="cls-3" x="107.3" y="143.4" width="1.1" height="1.1"/><rect class="cls-3" x="108" y="144.4" width="1.1" height="1.1"/><rect class="cls-3" x="108" y="144.4" width="1.1" height="1.1"/><rect class="cls-3" x="108.6" y="145.4" width="1.1" height="1.1"/><rect class="cls-3" x="110.1" y="147" width="1.1" height="1"/><rect class="cls-3" x="109.3" y="146.4" width="1.1" height="1.1"/><rect class="cls-3" x="101.8" y="137.2" width="1.1" height="1.1"/><rect class="cls-3" x="165.2" y="136" width="4" height=".9"/><rect class="cls-3" x="168.4" y="136.6" width=".8" height="8.2"/><rect class="cls-3" x="165.2" y="144.5" width="3.4" height="1"/><rect class="cls-3" x="164.6" y="136.7" width=".9" height="8.1"/><rect class="cls-3" x="170.1" y="136" width=".8" height="6.4"/><rect class="cls-3" x="174.1" y="136.6" width=".8" height="5.5"/><rect class="cls-3" x="170.7" y="136" width="3.4" height=".9"/><rect class="cls-3" x="170.1" y="141.5" width="4" height="1.1"/><rect class="cls-3" x="171.5" y="138.1" width="1.6" height="2.1"/><rect class="cls-3" x="166.3" y="138.1" width="1.3" height="3.2"/><rect class="cls-3" x="166.5" y="142.4" width=".9" height=".8"/><rect class="cls-3" x="172.4" y="142.6" width=".9" height="1.2"/><rect class="cls-3" x="174.1" y="143.6" width="1.5" height=".6"/><rect class="cls-3" x="170.9" y="142.4" width=".9" height="2.4"/><rect class="cls-3" x="171.4" y="144.2" width=".9" height="1.3"/><rect class="cls-3" x="171.5" y="144.7" width="4.3" height=".8"/><rect class="cls-3" x="174.9" y="145.5" width="1.5" height="1.7"/><rect class="cls-3" x="102.2" y="105.7" width="1" height="18.8"/><rect class="cls-3" x="175.1" y="105.7" width="1" height="22.5"/><rect class="cls-3" x="103.2" y="104.7" width="71.8" height="1"/><rect class="cls-3" x="101.4" y="124.5" width="73.7" height="1"/><rect class="cls-3" x="101.4" y="127.1" width="73.7" height="1"/><rect class="cls-3" x="102.2" y="128.1" width="73.8" height="1"/><rect class="cls-3" x="101.4" y="125.3" width=".9" height="2.8"/><rect class="cls-3" x="180.5" y="100.3" width="2.4" height="1"/><rect class="cls-3" x="182.8" y="101.3" width="3.7" height=".8"/><rect class="cls-3" x="185.7" y="102.2" width="4" height=".8"/><rect class="cls-3" x="189.7" y="103" width="3.5" height=".8"/><rect class="cls-3" x="193.1" y="103.9" width="2.1" height=".9"/><rect class="cls-3" x="194.3" y="104.3" width="3" height=".8"/><rect class="cls-3" x="196.3" y="105.1" width="2.1" height=".6"/><rect class="cls-3" x="198.3" y="105.7" width=".8" height="33.5"/><rect class="cls-3" x="180.4" y="148.1" width="2.2" height=".9"/><rect class="cls-3" x="181.7" y="148.9" width="2.2" height=".8"/><rect class="cls-3" x="183" y="149.7" width="1.8" height=".7"/><rect class="cls-3" x="183.8" y="150.4" width="7.4" height=".9"/><rect class="cls-3" x="190.8" y="151" width="1.2" height=".9"/><rect class="cls-3" x="192" y="151.6" width="6.4" height=".9"/><rect class="cls-3" x="198.4" y="144.7" width=".9" height="7.2"/><rect class="cls-4" x="198.5" y="143.4" width=".7" height=".7"/><rect class="cls-4" x="198" y="144" width=".7" height=".7"/><rect class="cls-4" x="197.5" y="144.6" width=".7" height=".7"/><rect class="cls-4" x="197" y="145.1" width=".7" height=".7"/><rect class="cls-4" x="196.6" y="145.7" width=".7" height=".7"/><rect class="cls-4" x="196.1" y="146.3" width=".7" height=".7"/><rect class="cls-4" x="195.6" y="146.9" width=".7" height=".7"/><rect class="cls-4" x="195.1" y="147.5" width=".7" height=".7"/><rect class="cls-4" x="188" y="140.8" width=".7" height=".7"/><rect class="cls-4" x="187.5" y="141.4" width=".7" height=".7"/><rect class="cls-4" x="187" y="142" width=".7" height=".7"/><rect class="cls-4" x="186.5" y="142.6" width=".7" height=".7"/><rect class="cls-4" x="186" y="143.2" width=".7" height=".7"/><rect class="cls-4" x="185.5" y="143.8" width=".7" height=".7"/><rect class="cls-4" x="185" y="144.3" width=".7" height=".7"/><rect class="cls-4" x="184.5" y="144.9" width=".7" height=".7"/><rect class="cls-4" x="184.5" y="144.9" width=".7" height=".7"/><rect class="cls-4" x="184.1" y="145.5" width=".7" height=".7"/><rect class="cls-4" x="183.6" y="146.1" width=".7" height=".7"/><rect class="cls-3" x="199.1" y="144.3" width=".2" height=".6"/><rect class="cls-3" x="199.6" y="141.4" width="2.3" height="2.1"/><rect class="cls-3" x="199.6" y="142" width="5" height="1.5"/><rect class="cls-3" x="203" y="142.9" width=".9" height="1.1"/><rect class="cls-3" x="189.9" y="139.7" width="1.8" height=".9"/><rect class="cls-3" x="181.9" y="140.2" width=".8" height="1.1"/><rect class="cls-3" x="181.4" y="138" width=".9" height="2.6"/><rect class="cls-3" x="182.1" y="131.1" width=".8" height="7.6"/><rect class="cls-3" x="183.7" y="131.1" width=".8" height="7.6"/><rect class="cls-3" x="185.6" y="130.4" width=".8" height="7.6"/><rect class="cls-3" x="187.6" y="130.4" width=".8" height="7.6"/><rect class="cls-3" x="189.7" y="130.3" width=".8" height="7.6"/><rect class="cls-3" x="192.1" y="130.3" width=".8" height="7.6"/><rect class="cls-3" x="194.3" y="130.8" width=".8" height="7.6"/><rect class="cls-3" x="196.3" y="131.1" width=".8" height="7.6"/><rect class="cls-3" x="200.4" y="131.9" width=".8" height="7.6"/><rect class="cls-3" x="202.3" y="132.6" width=".8" height="7.6"/><rect class="cls-3" x="203.8" y="132.6" width=".8" height="10.8"/><rect class="cls-3" x="181.7" y="138" width="3.8" height=".8"/><rect class="cls-3" x="186.4" y="137.4" width="6.6" height="1"/><rect class="cls-3" x="185.2" y="137.5" width="1.8" height=".8"/><rect class="cls-3" x="192.8" y="137.5" width="2.3" height="1.2"/><rect class="cls-3" x="195" y="138.4" width="3.9" height=".9"/><rect class="cls-3" x="198.3" y="139.1" width="3.6" height="1.1"/><rect class="cls-3" x="201.7" y="139.7" width="2.4" height=".8"/><rect class="cls-3" x="202.9" y="140.3" width="1.1" height=".8"/><rect class="cls-3" x="201.8" y="132" width="3.5" height="1.2"/><rect class="cls-3" x="197.4" y="131.3" width="4.6" height="1.2"/><rect class="cls-3" x="197.4" y="131.3" width="3.5" height=".8"/><rect class="cls-3" x="193.5" y="130.1" width="4.1" height="1.2"/><rect class="cls-3" x="189.5" y="129.5" width="4.3" height="1.2"/><rect class="cls-3" x="187.1" y="129.7" width="3.2" height="1"/><rect class="cls-3" x="181.5" y="130.1" width="6.4" height="1"/><rect class="cls-3" x="181.5" y="130.6" width="3.5" height="1.2"/><rect class="cls-3" x="183.6" y="112.8" width=".9" height="18.3"/><rect class="cls-3" x="191.1" y="113.6" width=".9" height="24.2"/><rect class="cls-3" x="184.1" y="111.9" width="4.4" height=".9"/><rect class="cls-3" x="186.6" y="112.6" width="2.9" height=".8"/><rect class="cls-3" x="188.5" y="113.2" width="2.7" height=".8"/><rect class="cls-3" x="185.4" y="114.4" width="1.7" height="7.2"/><rect class="cls-3" x="187.5" y="115.8" width="2.7" height="6.9"/><rect class="cls-3" x="186.8" y="115" width="2.6" height="6.6"/><rect class="cls-3" x="189.5" y="125.9" width="1" height="1.7"/><rect class="cls-3" x="182.8" y="107.1" width="1.7" height="1.5"/><rect class="cls-3" x="183.3" y="106.5" width="3" height=".7"/><rect class="cls-3" x="184.4" y="108" width="2.6" height=".7"/><rect class="cls-3" x="186" y="107.1" width="2.4" height=".6"/><rect class="cls-3" x="186" y="108.3" width="2.1" height=".7"/><rect class="cls-3" x="188.4" y="107.6" width="3.2" height=".6"/><rect class="cls-3" x="187.5" y="108.8" width="3.5" height=".7"/><rect class="cls-3" x="190" y="109.2" width="3.7" height=".5"/><rect class="cls-3" x="191.3" y="108" width="2.7" height=".6"/><rect class="cls-3" x="193.7" y="108.1" width=".5" height=".9"/><rect class="cls-3" x="193.3" y="109.5" width=".9" height=".7"/><rect class="cls-3" x="194.1" y="110" width=".6" height="1"/><rect class="cls-3" x="194.3" y="110.7" width=".6" height="4.4"/><rect class="cls-3" x="194.2" y="108.7" width=".5" height=".7"/><rect class="cls-3" x="194.6" y="108.9" width=".5" height=".7"/><rect class="cls-3" x="195.1" y="109.2" width=".4" height=".6"/><rect class="cls-3" x="195.3" y="109.7" width=".5" height=".7"/><rect class="cls-3" x="195.6" y="110.4" width=".5" height="4.5"/><rect class="cls-3" x="194.9" y="111.5" width="1" height=".9"/><rect class="cls-3" x="194.7" y="113.9" width="1.3" height=".6"/><rect class="cls-3" x="193.4" y="114.9" width="4.1" height="1"/><rect class="cls-3" x="197.5" y="115.6" width=".6" height=".6"/><rect class="cls-3" x="197.6" y="116.3" width=".9" height="8.7"/><rect class="cls-3" x="194" y="115.8" width=".7" height="8.8"/><rect class="cls-3" x="192.6" y="115.5" width=".9" height="9.4"/><rect class="cls-3" x="193.5" y="124.7" width="4.2" height="1.4"/><rect class="cls-3" x="195" y="123.6" width=".6" height=".6"/><rect class="cls-3" x="196.5" y="123.8" width=".6" height=".6"/><rect class="cls-3" x="195.1" y="116.5" width="2.3" height="4.3"/><rect class="cls-4" x="196" y="118" width=".5" height=".8"/><rect class="cls-4" x="195.8" y="119.5" width=".9" height=".6"/><rect class="cls-3" x="102.2" y="129" width=".7" height=".7"/><rect class="cls-3" x="103" y="129.8" width=".7" height=".7"/><rect class="cls-3" x="103.7" y="129" width=".7" height=".7"/><rect class="cls-3" x="104.4" y="129.8" width=".7" height=".7"/><rect class="cls-3" x="105.2" y="129" width=".7" height=".7"/><rect class="cls-3" x="105.9" y="129.8" width=".7" height=".7"/><rect class="cls-3" x="106.6" y="129" width=".7" height=".7"/><rect class="cls-3" x="107.4" y="129.8" width=".7" height=".7"/><rect class="cls-3" x="108.1" y="129" width=".7" height=".7"/><rect class="cls-3" x="108.8" y="129.8" width=".7" height=".7"/><rect class="cls-3" x="109.6" y="129" width=".7" height=".7"/><rect class="cls-3" x="110.3" y="129.8" width=".7" height=".7"/><rect class="cls-3" x="111" y="129" width=".7" height=".7"/><rect class="cls-3" x="111.8" y="129.8" width=".7" height=".7"/><rect class="cls-3" x="112.5" y="129" width=".7" height=".7"/><rect class="cls-3" x="113.2" y="129.8" width=".7" height=".7"/><rect class="cls-3" x="113.9" y="129" width=".7" height=".7"/><rect class="cls-3" x="114.7" y="129.8" width=".7" height=".7"/><rect class="cls-3" x="115.4" y="129" width=".7" height=".7"/><rect class="cls-3" x="116.1" y="129.8" width=".7" height=".7"/><rect class="cls-3" x="116.9" y="129" width=".7" height=".7"/><rect class="cls-3" x="117.6" y="129.8" width=".7" height=".7"/><rect class="cls-3" x="118.3" y="129" width=".7" height=".7"/><rect class="cls-3" x="119.1" y="129.8" width=".7" height=".7"/><rect class="cls-3" x="119.8" y="129" width=".7" height=".7"/><rect class="cls-3" x="120.5" y="129.8" width=".7" height=".7"/><rect class="cls-3" x="121.3" y="129" width=".7" height=".7"/><rect class="cls-3" x="122" y="129.8" width=".7" height=".7"/><rect class="cls-3" x="122.7" y="129" width=".7" height=".7"/><rect class="cls-3" x="123.5" y="129.8" width=".7" height=".7"/><rect class="cls-3" x="124.2" y="129" width=".7" height=".7"/><rect class="cls-3" x="124.9" y="129.8" width=".7" height=".7"/><rect class="cls-3" x="125.6" y="129" width=".7" height=".7"/><rect class="cls-3" x="126.4" y="129.8" width=".7" height=".7"/><rect class="cls-3" x="127.1" y="129" width=".7" height=".7"/><rect class="cls-3" x="127.8" y="129.8" width=".7" height=".7"/><rect class="cls-3" x="128.6" y="129" width=".7" height=".7"/><rect class="cls-3" x="129.3" y="129.8" width=".7" height=".7"/><rect class="cls-3" x="130" y="129" width=".7" height=".7"/><rect class="cls-3" x="130.8" y="129.8" width=".7" height=".7"/><rect class="cls-3" x="131.5" y="129" width=".7" height=".7"/><rect class="cls-3" x="132.2" y="129.8" width=".7" height=".7"/><rect class="cls-3" x="133" y="129" width=".7" height=".7"/><rect class="cls-3" x="133.7" y="129.8" width=".7" height=".7"/><rect class="cls-3" x="134.4" y="129" width=".7" height=".7"/><rect class="cls-3" x="135.2" y="129.8" width=".7" height=".7"/><rect class="cls-3" x="135.9" y="129" width=".7" height=".7"/><rect class="cls-3" x="136.6" y="129.8" width=".7" height=".7"/><rect class="cls-3" x="137.4" y="129" width=".7" height=".7"/><rect class="cls-3" x="138.1" y="129.8" width=".7" height=".7"/><rect class="cls-3" x="138.8" y="129" width=".7" height=".7"/><rect class="cls-3" x="139.5" y="129.8" width=".7" height=".7"/><rect class="cls-3" x="140.3" y="129" width=".7" height=".7"/><rect class="cls-3" x="141" y="129.8" width=".7" height=".7"/><rect class="cls-3" x="141.7" y="129" width=".7" height=".7"/><rect class="cls-3" x="142.5" y="129.8" width=".7" height=".7"/><rect class="cls-3" x="143.2" y="129" width=".7" height=".7"/><rect class="cls-3" x="143.9" y="129.8" width=".7" height=".7"/><rect class="cls-3" x="144.7" y="129" width=".7" height=".7"/><rect class="cls-3" x="145.4" y="129.8" width=".7" height=".7"/><rect class="cls-3" x="146.1" y="129" width=".7" height=".7"/><rect class="cls-3" x="146.9" y="129.8" width=".7" height=".7"/><rect class="cls-3" x="147.6" y="129" width=".7" height=".7"/><rect class="cls-3" x="148.3" y="129.8" width=".7" height=".7"/><rect class="cls-3" x="149.1" y="129" width=".7" height=".7"/><rect class="cls-3" x="149.8" y="129.8" width=".7" height=".7"/><rect class="cls-3" x="150.5" y="129" width=".7" height=".7"/><rect class="cls-3" x="151.2" y="129.8" width=".7" height=".7"/><rect class="cls-3" x="152" y="129" width=".7" height=".7"/><rect class="cls-3" x="152.7" y="129.8" width=".7" height=".7"/><rect class="cls-3" x="153.4" y="129" width=".7" height=".7"/><rect class="cls-3" x="154.2" y="129.8" width=".7" height=".7"/><rect class="cls-3" x="154.9" y="129" width=".7" height=".7"/><rect class="cls-3" x="155.6" y="129.8" width=".7" height=".7"/><rect class="cls-3" x="156.4" y="129" width=".7" height=".7"/><rect class="cls-3" x="157.1" y="129.8" width=".7" height=".7"/><rect class="cls-3" x="157.8" y="129" width=".7" height=".7"/><rect class="cls-3" x="158.6" y="129.8" width=".7" height=".7"/><rect class="cls-3" x="159.3" y="129" width=".7" height=".7"/><rect class="cls-3" x="160" y="129.8" width=".7" height=".7"/><rect class="cls-3" x="160.8" y="129" width=".7" height=".7"/><rect class="cls-3" x="161.5" y="129.8" width=".7" height=".7"/><rect class="cls-3" x="162.2" y="129" width=".7" height=".7"/><rect class="cls-3" x="163" y="129.8" width=".7" height=".7"/><rect class="cls-3" x="163.7" y="129" width=".7" height=".7"/><rect class="cls-3" x="164.4" y="129.8" width=".7" height=".7"/><rect class="cls-3" x="165.1" y="129" width=".7" height=".7"/><rect class="cls-3" x="165.9" y="129.8" width=".7" height=".7"/><rect class="cls-3" x="166.6" y="129" width=".7" height=".7"/><rect class="cls-3" x="167.3" y="129.8" width=".7" height=".7"/><rect class="cls-3" x="168.1" y="129" width=".7" height=".7"/><rect class="cls-3" x="168.8" y="129.8" width=".7" height=".7"/><rect class="cls-3" x="169.5" y="129" width=".7" height=".7"/><rect class="cls-3" x="170.3" y="129.8" width=".7" height=".7"/><rect class="cls-3" x="171" y="129" width=".7" height=".7"/><rect class="cls-3" x="171.7" y="129.8" width=".7" height=".7"/><rect class="cls-3" x="172.5" y="129" width=".7" height=".7"/><rect class="cls-3" x="173.2" y="129.8" width=".7" height=".7"/><rect class="cls-3" x="173.9" y="129" width=".7" height=".7"/><rect class="cls-3" x="174.7" y="129.8" width=".7" height=".7"/><rect class="cls-3" x="175.4" y="129" width=".7" height=".7"/><rect class="cls-3" x="196.1" y="150.4" width="1.3" height="7"/><rect class="cls-3" x="196.4" y="156.5" width="1.7" height="2.5"/><rect class="cls-3" x="195.2" y="157.4" width=".9" height="3.9"/><rect class="cls-3" x="197.6" y="159" width="1" height="3.5"/><rect class="cls-3" x="198.4" y="162.3" width="1" height="3.8"/><rect class="cls-3" x="194.4" y="161.2" width=".8" height="4.8"/><rect class="cls-3" x="199" y="165.3" width="1.6" height=".8"/><rect class="cls-3" x="199.1" y="166" width="1.1" height="1.2"/><rect class="cls-3" x="200.6" y="166.1" width=".7" height="1.3"/><rect class="cls-3" x="201" y="166.6" width="1" height=".8"/><rect class="cls-3" x="201.8" y="167.3" width=".8" height="1.2"/><rect class="cls-3" x="200.9" y="168.4" width=".9" height="1"/><rect class="cls-3" x="201.7" y="169.4" width=".9" height="2.1"/><rect class="cls-3" x="197.8" y="165.7" width=".8" height=".7"/><rect class="cls-3" x="196.4" y="166.3" width="1.7" height=".9"/><rect class="cls-3" x="197.3" y="167.2" width="1.8" height="1.2"/><rect class="cls-3" x="196.4" y="168.4" width="1.9" height=".9"/><rect class="cls-3" x="195.6" y="167.2" width=".8" height="1.3"/><rect class="cls-3" x="194.9" y="166.4" width=".9" height="1.2"/><rect class="cls-3" x="193.4" y="165.3" width="1.7" height="1.2"/><rect class="cls-3" x="194.2" y="166.4" width=".9" height=".8"/><rect class="cls-3" x="192.8" y="166.2" width=".6" height="1.8"/><rect class="cls-3" x="193" y="167.3" width="1.6" height="1.2"/><rect class="cls-3" x="192.2" y="167.8" width="1.2" height=".6"/><rect class="cls-3" x="191.7" y="168.2" width=".9" height="4.1"/><rect class="cls-3" x="192.3" y="169.4" width="1.3" height=".9"/><rect class="cls-3" x="194.4" y="169.4" width="2" height=".9"/><rect class="cls-3" x="193.7" y="170.6" width=".7" height="3.8"/><rect class="cls-3" x="193.3" y="170.9" width=".6" height="3.5"/><rect class="cls-3" x="192.4" y="171.2" width="1.3" height="1.1"/><rect class="cls-3" x="194.9" y="172.5" width="3.6" height="1"/><rect class="cls-3" x="197.5" y="169.2" width="1.7" height="1.1"/><rect class="cls-3" x="198.6" y="170.3" width="2.3" height="1.2"/><rect class="cls-3" x="198.1" y="171.3" width=".7" height=".8"/><rect class="cls-3" x="199.4" y="171.3" width="2.3" height="1.2"/><rect class="cls-3" x="199.8" y="172.3" width=".9" height="1.3"/><rect class="cls-3" x="198.8" y="172.3" width=".6" height="1"/><rect class="cls-3" x="199.4" y="173.1" width=".8" height="1.1"/><rect class="cls-3" x="199.1" y="174.1" width=".6" height=".9"/><rect class="cls-3" x="198.5" y="174.8" width=".7" height=".7"/><rect class="cls-3" x="195.4" y="175.4" width="3.3" height=".9"/><rect class="cls-3" x="194.6" y="175" width="1" height=".7"/><rect class="cls-3" x="194.2" y="174.4" width="1" height=".8"/><rect class="cls-3" x="196.4" y="159" width=".7" height="8.2"/><rect class="cls-3" x="103" y="122.7" width="1.5" height=".8"/><rect class="cls-3" x="103.7" y="122" width="1.8" height=".9"/><rect class="cls-3" x="106.3" y="120.9" width="1.1" height="1.8"/><rect class="cls-3" x="104.3" y="120.9" width="1.9" height="1.1"/><rect class="cls-3" x="108.2" y="121" width="5" height=".8"/><rect class="cls-3" x="114.3" y="121" width="1.7" height=".8"/><rect class="cls-3" x="107.4" y="121.8" width=".9" height=".9"/><rect class="cls-3" x="109.2" y="121.8" width="1.1" height=".8"/><rect class="cls-3" x="110.3" y="122.5" width="1.1" height=".9"/><rect class="cls-3" x="111.4" y="121.6" width="1.8" height="1.1"/><rect class="cls-3" x="115.4" y="121.4" width=".6" height="1.3"/><rect class="cls-3" x="107.1" y="123.5" width="1.1" height="1.1"/><rect class="cls-3" x="116" y="122" width="3.1" height=".7"/><rect class="cls-3" x="118.1" y="123.5" width="1" height="1"/><rect class="cls-3" x="118.9" y="121" width="2" height=".8"/><rect class="cls-3" x="117" y="120.9" width="2.1" height="1.4"/><rect class="cls-3" x="118.8" y="120.9" width="2.1" height=".1"/><rect class="cls-3" x="122" y="120.9" width="4" height=".9"/><rect class="cls-3" x="123" y="121.6" width="2" height="1"/><rect class="cls-3" x="124.1" y="122.5" width="1" height=".9"/><rect class="cls-3" x="124.7" y="123.4" width="1.1" height="1.1"/><rect class="cls-3" x="128" y="120.9" width="2.8" height=".9"/><rect class="cls-3" x="128.7" y="121.5" width="2.1" height="1"/><rect class="cls-3" x="129.9" y="122.2" width="1" height="1.1"/><rect class="cls-4" x="105" y="114.2" width=".8" height="2.9"/><rect class="cls-4" x="105.7" y="113.5" width=".8" height="2.9"/><rect class="cls-4" x="106.3" y="112.9" width=".8" height="2.9"/><rect class="cls-4" x="106.9" y="112.3" width=".8" height="2.9"/><rect class="cls-4" x="107.6" y="111.6" width=".8" height="2.9"/><rect class="cls-4" x="108.2" y="111" width=".8" height="2.9"/><rect class="cls-4" x="108.9" y="110.4" width=".8" height="2.9"/><rect class="cls-4" x="109.5" y="109.7" width=".8" height="2.9"/><rect class="cls-4" x="110.1" y="109.1" width=".8" height="2.9"/><rect class="cls-4" x="110.8" y="108.4" width=".8" height="2.9"/><rect class="cls-4" x="111.4" y="107.8" width=".8" height="2.9"/><rect class="cls-4" x="112" y="107.2" width=".8" height="2.9"/><rect class="cls-4" x="112.7" y="107.2" width=".8" height="2.2"/><rect class="cls-4" x="117.8" y="114.2" width=".8" height="2.9"/><rect class="cls-4" x="118.4" y="113.5" width=".8" height="2.9"/><rect class="cls-4" x="119.1" y="112.9" width=".8" height="2.9"/><rect class="cls-4" x="119.7" y="112.3" width=".8" height="2.9"/><rect class="cls-4" x="120.3" y="111.6" width=".8" height="2.9"/><rect class="cls-4" x="121" y="111" width=".8" height="2.9"/><rect class="cls-4" x="121.6" y="110.4" width=".8" height="2.9"/><rect class="cls-4" x="122.2" y="109.7" width=".8" height="2.9"/><rect class="cls-4" x="122.9" y="109.1" width=".8" height="2.9"/><rect class="cls-4" x="123.5" y="108.4" width=".8" height="2.9"/><rect class="cls-4" x="124.2" y="107.8" width=".8" height="2.9"/><rect class="cls-4" x="124.8" y="107.2" width=".8" height="2.9"/><rect class="cls-4" x="125.4" y="107.2" width=".8" height="2.2"/><rect class="cls-4" x="132.8" y="114.2" width=".8" height="2.9"/><rect class="cls-4" x="133.4" y="113.5" width=".8" height="2.9"/><rect class="cls-4" x="134.1" y="112.9" width=".8" height="2.9"/><rect class="cls-4" x="134.7" y="112.3" width=".8" height="2.9"/><rect class="cls-4" x="135.3" y="111.6" width=".8" height="2.9"/><rect class="cls-4" x="136" y="111" width=".8" height="2.9"/><rect class="cls-4" x="136.6" y="110.4" width=".8" height="2.9"/><rect class="cls-4" x="137.2" y="109.7" width=".8" height="2.9"/><rect class="cls-4" x="137.9" y="109.1" width=".8" height="2.9"/><rect class="cls-4" x="138.5" y="108.4" width=".8" height="2.9"/><rect class="cls-4" x="139.2" y="107.8" width=".8" height="2.9"/><rect class="cls-4" x="139.8" y="107.2" width=".8" height="2.9"/><rect class="cls-4" x="140.4" y="107.2" width=".8" height="2.2"/><rect class="cls-4" x="140.4" y="107.2" width=".8" height="2.2"/><rect class="cls-4" x="141.1" y="107.2" width=".8" height="1.6"/><rect class="cls-4" x="141.7" y="107.2" width=".8" height="1"/><rect class="cls-4" x="141.7" y="107.2" width=".8" height="1"/><rect class="cls-4" x="169.3" y="107.2" width=".8" height="2.9"/><rect class="cls-4" x="170" y="107.2" width=".8" height="2.2"/><rect class="cls-4" x="170.6" y="107.2" width=".8" height="1.6"/><rect class="cls-4" x="171.2" y="107.2" width=".8" height="1"/><rect class="cls-4" x="124.8" y="107.2" width=".8" height="2.9"/><rect class="cls-4" x="125.5" y="107.2" width=".8" height="2.2"/><rect class="cls-4" x="126.1" y="107.2" width=".8" height="1.6"/><rect class="cls-4" x="126.7" y="107.2" width=".8" height="1"/><rect class="cls-4" x="112.1" y="107.2" width=".8" height="2.9"/><rect class="cls-4" x="112.7" y="107.2" width=".8" height="2.2"/><rect class="cls-4" x="113.4" y="107.2" width=".8" height="1.6"/><rect class="cls-4" x="114" y="107.2" width=".8" height="1"/><rect class="cls-4" x="162.2" y="114.2" width=".8" height="2.9"/><rect class="cls-4" x="162.9" y="113.5" width=".8" height="2.9"/><rect class="cls-4" x="163.5" y="112.9" width=".8" height="2.9"/><rect class="cls-4" x="164.1" y="112.3" width=".8" height="2.9"/><rect class="cls-4" x="164.8" y="111.6" width=".8" height="2.9"/><rect class="cls-4" x="165.4" y="111" width=".8" height="2.9"/><rect class="cls-4" x="166" y="110.4" width=".8" height="2.9"/><rect class="cls-4" x="166.7" y="109.7" width=".8" height="2.9"/><rect class="cls-4" x="167.3" y="109.1" width=".8" height="2.9"/><rect class="cls-4" x="168" y="108.4" width=".8" height="2.9"/><rect class="cls-4" x="168.6" y="107.8" width=".8" height="2.9"/><rect class="cls-4" x="169.2" y="107.2" width=".8" height="2.9"/><rect class="cls-4" x="169.9" y="107.2" width=".8" height="2.2"/><rect class="cls-4" x="151.8" y="116.3" width="5.8" height="1.9"/><rect class="cls-4" x="151.3" y="116.8" width="6.8" height=".8"/><rect class="cls-4" x="151.4" y="118.2" width="6.6" height="1.7"/><rect class="cls-4" x="151.3" y="118.5" width="7" height="1.1"/><rect class="cls-4" x="150.9" y="119" width="7.8" height="1.3"/><rect class="cls-4" x="150.3" y="119.6" width="8.7" height="2.4"/><rect class="cls-4" x="150.9" y="121.2" width="7.7" height="1.5"/><rect class="cls-4" x="151.3" y="121.9" width="6.9" height="1.3"/><rect class="cls-4" x="151.5" y="122.4" width="6.4" height="1.2"/><rect class="cls-4" x="152.1" y="122.7" width="5.5" height="1.4"/><rect class="cls-3" x="152" y="117" width="5.5" height=".5"/><rect class="cls-3" x="152" y="118.3" width="5.5" height=".5"/><rect class="cls-3" x="153.4" y="121" width=".7" height=".4"/><rect class="cls-3" x="154" y="121.8" width=".4" height=".5"/><rect class="cls-3" x="154" y="119.4" width="1.2" height=".5"/><rect class="cls-3" x="155" y="120" width=".8" height=".4"/><rect class="cls-3" x="155.7" y="120.2" width=".6" height=".6"/><rect class="cls-3" x="156.3" y="119.7" width=".7" height=".6"/><rect class="cls-3" x="157" y="120" width=".5" height="1.2"/><rect class="cls-3" x="156.4" y="121.1" width=".6" height=".5"/><rect class="cls-3" x="157" y="121.7" width=".5" height=".7"/><rect class="cls-3" x="156.4" y="122.3" width=".6" height=".6"/><rect class="cls-3" x="155.8" y="121.7" width=".6" height=".6"/><rect class="cls-3" x="155.2" y="121.7" width=".3" height=".6"/><rect class="cls-3" x="155.3" y="122" width=".5" height=".3"/><rect class="cls-3" x="153.7" y="122.4" width="1.5" height=".5"/><rect class="cls-3" x="153.4" y="119.7" width=".6" height=".7"/><rect class="cls-3" x="152.9" y="120.1" width=".6" height=".7"/><rect class="cls-3" x="152.2" y="120.7" width=".6" height=".9"/><rect class="cls-3" x="152.5" y="121.7" width=".6" height=".6"/><rect class="cls-3" x="153.1" y="121.7" width=".3" height=".8"/><rect class="cls-3" x="153.3" y="122" width=".4" height=".4"/><rect class="cls-4" x="170.4" y="112.2" width=".7" height="1.3"/><rect class="cls-4" x="169.8" y="112.7" width=".8" height="1.2"/><rect class="cls-4" x="169.3" y="113.7" width=".8" height="1.4"/><rect class="cls-4" x="169.6" y="114.8" width=".5" height=".6"/><rect class="cls-4" x="169.2" y="115.5" width=".4" height=".8"/><rect class="cls-4" x="168.8" y="116" width=".4" height="1.8"/><rect class="cls-4" x="169" y="116.9" width=".9" height=".5"/><rect class="cls-4" x="169" y="117.3" width=".5" height=".5"/><rect class="cls-4" x="168.3" y="114.5" width=".6" height="1.3"/><rect class="cls-4" x="168.1" y="114.5" width=".4" height=".8"/><rect class="cls-4" x="167.7" y="114.1" width=".6" height=".6"/><rect class="cls-4" x="167.4" y="113.5" width=".8" height=".6"/><rect class="cls-4" x="171.5" y="114.2" width="1.2" height=".5"/><rect class="cls-4" x="171.2" y="114.7" width=".7" height=".4"/><rect class="cls-4" x="170.7" y="115.1" width=".7" height=".7"/><rect class="cls-4" x="170.2" y="115.7" width=".6" height=".4"/><rect class="cls-4" x="170.5" y="116.1" width=".6" height=".4"/><rect class="cls-4" x="170.1" y="116.4" width=".4" height=".6"/><rect class="cls-4" x="171.5" y="116.4" width="1.8" height=".8"/><rect class="cls-4" x="171" y="117" width="1.2" height=".4"/><rect class="cls-4" x="170.7" y="117.2" width=".5" height=".5"/><rect class="cls-4" x="170.1" y="117.5" width=".8" height=".6"/><rect class="cls-4" x="169.5" y="117.7" width=".3" height="1.5"/><rect class="cls-4" x="169.7" y="118.1" width=".4" height="1.1"/><rect class="cls-4" x="168.3" y="116.7" width=".5" height=".6"/><rect class="cls-4" x="167.6" y="116.3" width=".8" height=".6"/><rect class="cls-4" x="166.7" y="115.8" width="1" height=".5"/><rect class="cls-4" x="165.9" y="115.4" width="1.2" height=".4"/><rect class="cls-4" x="165.6" y="117" width="1.3" height=".4"/><rect class="cls-4" x="166.3" y="117.4" width="1.1" height=".4"/><rect class="cls-4" x="167.4" y="117.7" width=".5" height=".6"/><rect class="cls-4" x="167.9" y="117.5" width=".4" height=".3"/><rect class="cls-4" x="167.7" y="118" width=".7" height=".7"/><rect class="cls-4" x="168.1" y="118.4" width=".8" height="1.1"/><rect class="cls-4" x="168.5" y="119.3" width=".8" height=".6"/><rect class="cls-4" x="170.1" y="119.3" width=".6" height=".6"/><rect class="cls-4" x="170.6" y="118.9" width=".6" height=".4"/><rect class="cls-4" x="171" y="118.5" width="1.1" height=".6"/><rect class="cls-4" x="171.3" y="118.1" width="1.2" height=".5"/><rect class="cls-4" x="172.1" y="118.9" width=".6" height=".7"/><rect class="cls-4" x="172.8" y="119.5" width=".5" height=".7"/><rect class="cls-4" x="165.5" y="118" width=".6" height=".3"/><rect class="cls-4" x="165.1" y="119.5" width=".5" height="1"/><rect class="cls-4" x="165.7" y="119.1" width=".5" height=".8"/><rect class="cls-4" x="166.2" y="118.8" width=".3" height=".7"/><rect class="cls-4" x="166.5" y="118.5" width=".7" height=".5"/><rect class="cls-4" x="166.9" y="119" width=".8" height=".5"/><rect class="cls-4" x="166.6" y="120.5" width="5.6" height=".5"/><rect class="cls-4" x="167" y="121.6" width="4.8" height="1.3"/><rect class="cls-4" x="167.5" y="122.5" width="3.8" height="1.5"/></g></svg>