<?xml version="1.0" encoding="UTF-8"?><svg id="_レイヤー_2" xmlns="http://www.w3.org/2000/svg" viewBox="0 0 700 100"><defs><style>.cls-1{fill:none;}.cls-2{fill:#080b0f;}.cls-3{fill:#0a0e12;}.cls-4{fill:#fbfcfd;}</style></defs><rect class="cls-1" width="700" height="100"/><rect class="cls-2" x="35" y="40.4" width="9.6" height="7.7"/><rect class="cls-2" x="35" y="38.4" width="1.8" height="4.9"/><rect class="cls-2" x="42" y="38.4" width="2.5" height="6.3"/><rect class="cls-2" x="44.6" y="42.8" width="8.9" height="9.9"/><rect class="cls-2" x="35" y="50.3" width="3.8" height="4.1"/><rect class="cls-2" x="41.8" y="50.3" width="7.9" height="4.1"/><rect class="cls-2" x="36.8" y="47.7" width="13" height="5.1"/><rect class="cls-4" x="36.8" y="43.1" width="1.5" height="2.3"/><rect class="cls-4" x="40.4" y="43.1" width="2.3" height="2.3"/><rect class="cls-2" x="47.2" y="40.4" width="12.7" height="5.8"/><rect class="cls-2" x="52.3" y="44" width="11.6" height="10.4"/><rect class="cls-2" x="57.6" y="41.9" width="4.6" height="6.2"/><rect class="cls-3" x="64" y="48.1" width="2.5" height="6.3"/><rect class="cls-2" x="66.5" y="51.8" width="2.6" height="2.6" transform="translate(120.8 -14.7) rotate(90)"/><rect class="cls-2" x="69.1" y="54.3" width="2.6" height="2.6" transform="translate(126 -14.7) rotate(90)"/><rect class="cls-2" x="69.1" y="56.9" width="2.6" height="2.6" transform="translate(128.5 -12.2) rotate(90)"/><rect class="cls-2" x="66.5" y="59.5" width="2.6" height="2.6" transform="translate(128.5 -7) rotate(90)"/><rect class="cls-2" x="135" y="40.4" width="9.6" height="7.7"/><rect class="cls-2" x="135" y="38.4" width="1.8" height="4.9"/><rect class="cls-2" x="142" y="38.4" width="2.5" height="6.3"/><rect class="cls-2" x="144.6" y="42.8" width="8.9" height="9.9"/><rect class="cls-2" x="135" y="50.3" width="3.8" height="4.1"/><rect class="cls-2" x="141.8" y="50.3" width="7.9" height="4.1"/><rect class="cls-2" x="136.8" y="47.7" width="13" height="5.1"/><rect class="cls-4" x="136.8" y="43.1" width="1.5" height="2.3"/><rect class="cls-4" x="140.4" y="43.1" width="2.3" height="2.3"/><rect class="cls-2" x="147.2" y="40.4" width="12.7" height="5.8"/><rect class="cls-2" x="152.3" y="44" width="11.6" height="10.4"/><rect class="cls-2" x="157.6" y="41.9" width="4.6" height="6.2"/><rect class="cls-3" x="164" y="48.1" width="2.5" height="6.3"/><rect class="cls-2" x="166.4" y="51.8" width="2.6" height="2.6" transform="translate(220.8 -114.7) rotate(90)"/><rect class="cls-2" x="169" y="51.8" width="2.6" height="2.6" transform="translate(223.3 -117.2) rotate(90)"/><rect class="cls-2" x="171.6" y="54.3" width="2.6" height="2.6" transform="translate(228.5 -117.2) rotate(90)"/><rect class="cls-2" x="171.6" y="56.9" width="2.6" height="2.6" transform="translate(231 -114.7) rotate(90)"/><rect class="cls-2" x="235" y="40.4" width="9.6" height="7.7"/><rect class="cls-2" x="235" y="38.4" width="1.8" height="4.9"/><rect class="cls-2" x="242" y="38.4" width="2.5" height="6.3"/><rect class="cls-2" x="244.6" y="42.8" width="8.9" height="9.9"/><rect class="cls-2" x="235" y="50.3" width="3.8" height="4.1"/><rect class="cls-2" x="241.8" y="50.3" width="7.9" height="4.1"/><rect class="cls-2" x="236.8" y="47.7" width="13" height="5.1"/><rect class="cls-4" x="236.8" y="43.1" width="1.5" height="2.3"/><rect class="cls-4" x="240.4" y="43.1" width="2.3" height="2.3"/><rect class="cls-2" x="247.2" y="40.4" width="12.7" height="5.8"/><rect class="cls-2" x="252.3" y="44" width="11.6" height="10.4"/><rect class="cls-2" x="257.6" y="41.9" width="4.6" height="6.2"/><rect class="cls-3" x="264" y="48.1" width="2.5" height="6.3"/><rect class="cls-2" x="266.5" y="51.8" width="2.6" height="2.6" transform="translate(320.8 -214.7) rotate(90)"/><rect class="cls-2" x="269.1" y="51.8" width="2.6" height="2.6" transform="translate(323.4 -217.3) rotate(90)"/><rect class="cls-2" x="271.6" y="51.8" width="2.6" height="2.6" transform="translate(326 -219.8) rotate(90)"/><rect class="cls-2" x="274.2" y="54.3" width="2.6" height="2.6" transform="translate(331.1 -219.8) rotate(90)"/><rect class="cls-2" x="335" y="40.4" width="9.6" height="7.7"/><rect class="cls-2" x="335" y="38.4" width="1.8" height="4.9"/><rect class="cls-2" x="342" y="38.4" width="2.5" height="6.3"/><rect class="cls-2" x="344.6" y="42.8" width="8.9" height="9.9"/><rect class="cls-2" x="335" y="50.3" width="3.8" height="4.1"/><rect class="cls-2" x="341.8" y="50.3" width="7.9" height="4.1"/><rect class="cls-2" x="336.8" y="47.7" width="13" height="5.1"/><rect class="cls-2" x="347.2" y="40.4" width="12.7" height="5.8"/><rect class="cls-2" x="352.3" y="44" width="11.6" height="10.4"/><rect class="cls-2" x="357.6" y="41.9" width="4.6" height="6.2"/><rect class="cls-3" x="364" y="48.1" width="2.5" height="6.3"/><rect class="cls-2" x="366.4" y="51.8" width="2.6" height="2.6" transform="translate(420.7 -314.6) rotate(90)"/><rect class="cls-2" x="369" y="49.2" width="2.6" height="2.6" transform="translate(420.7 -319.7) rotate(90)"/><rect class="cls-2" x="371.5" y="49.2" width="2.6" height="2.6" transform="translate(423.3 -322.3) rotate(90)"/><rect class="cls-2" x="374.1" y="51.8" width="2.6" height="2.6" transform="translate(428.4 -322.3) rotate(90)"/><rect class="cls-2" x="435" y="40.4" width="9.6" height="7.7"/><rect class="cls-2" x="435" y="38.4" width="1.8" height="4.9"/><rect class="cls-2" x="442" y="38.4" width="2.5" height="6.3"/><rect class="cls-2" x="444.6" y="42.8" width="8.9" height="9.9"/><rect class="cls-2" x="435" y="50.3" width="3.8" height="4.1"/><rect class="cls-2" x="441.8" y="50.3" width="7.9" height="4.1"/><rect class="cls-2" x="436.8" y="47.7" width="13" height="5.1"/><rect class="cls-4" x="436.8" y="43.1" width="1.5" height="2.3"/><rect class="cls-4" x="440.4" y="43.1" width="2.3" height="2.3"/><rect class="cls-2" x="447.2" y="40.4" width="12.7" height="5.8"/><rect class="cls-2" x="452.3" y="44" width="11.6" height="10.4"/><rect class="cls-2" x="457.6" y="41.9" width="4.6" height="6.2"/><rect class="cls-3" x="464" y="48.1" width="2.5" height="6.3"/><rect class="cls-2" x="466.5" y="51.8" width="2.6" height="2.6" transform="translate(520.8 -414.7) rotate(90)"/><rect class="cls-2" x="469" y="51.8" width="2.6" height="2.6" transform="translate(523.4 -417.3) rotate(90)"/><rect class="cls-2" x="471.6" y="49.2" width="2.6" height="2.6" transform="translate(523.4 -422.4) rotate(90)"/><rect class="cls-2" x="474.2" y="49.2" width="2.6" height="2.6" transform="translate(525.9 -425) rotate(90)"/><rect class="cls-2" x="535" y="40.4" width="9.6" height="7.7"/><rect class="cls-2" x="535" y="38.4" width="1.8" height="4.9"/><rect class="cls-2" x="542" y="38.4" width="2.5" height="6.3"/><rect class="cls-2" x="544.6" y="42.8" width="8.9" height="9.9"/><rect class="cls-2" x="535" y="50.3" width="3.8" height="4.1"/><rect class="cls-2" x="541.8" y="50.3" width="7.9" height="4.1"/><rect class="cls-2" x="536.8" y="47.7" width="13" height="5.1"/><rect class="cls-4" x="536.8" y="43.1" width="1.5" height="2.3"/><rect class="cls-4" x="540.4" y="43.1" width="2.3" height="2.3"/><rect class="cls-2" x="547.2" y="40.4" width="12.7" height="5.8"/><rect class="cls-2" x="552.3" y="44" width="11.6" height="10.4"/><rect class="cls-2" x="557.6" y="41.9" width="4.6" height="6.2"/><rect class="cls-3" x="564" y="48.1" width="2.5" height="6.3"/><rect class="cls-2" x="566.4" y="51.8" width="2.6" height="2.6" transform="translate(620.7 -514.6) rotate(90)"/><rect class="cls-2" x="568.9" y="51.8" width="2.6" height="2.6" transform="translate(623.3 -517.1) rotate(90)"/><rect class="cls-2" x="571.5" y="51.8" width="2.6" height="2.6" transform="translate(625.8 -519.7) rotate(90)"/><rect class="cls-2" x="574.1" y="49.2" width="2.6" height="2.6" transform="translate(625.8 -524.9) rotate(90)"/><rect class="cls-2" x="635" y="40.4" width="9.6" height="7.7"/><rect class="cls-2" x="635" y="38.4" width="1.8" height="4.9"/><rect class="cls-2" x="642" y="38.4" width="2.5" height="6.3"/><rect class="cls-2" x="644.6" y="42.8" width="8.9" height="9.9"/><rect class="cls-2" x="635" y="50.3" width="3.8" height="4.1"/><rect class="cls-2" x="641.8" y="50.3" width="7.9" height="4.1"/><rect class="cls-2" x="636.8" y="47.7" width="13" height="5.1"/><rect class="cls-4" x="636.8" y="43.1" width="1.5" height="2.3"/><rect class="cls-4" x="640.4" y="43.1" width="2.3" height="2.3"/><rect class="cls-2" x="647.2" y="40.4" width="12.7" height="5.8"/><rect class="cls-2" x="652.3" y="44" width="11.6" height="10.4"/><rect class="cls-2" x="657.6" y="41.9" width="4.6" height="6.2"/><rect class="cls-3" x="664" y="48.1" width="2.5" height="6.3"/><rect class="cls-2" x="666.5" y="51.8" width="2.6" height="2.6" transform="translate(720.8 -614.7) rotate(90)"/><rect class="cls-2" x="669.1" y="54.3" width="2.6" height="2.6" transform="translate(725.9 -614.8) rotate(90)"/><rect class="cls-2" x="671.6" y="54.3" width="2.6" height="2.6" transform="translate(728.5 -617.3) rotate(90)"/><rect class="cls-2" x="674.2" y="51.8" width="2.6" height="2.6" transform="translate(728.5 -622.4) rotate(90)"/></svg>